<svg width="271" height="67" viewBox="0 0 271 67" fill="none" xmlns="http://www.w3.org/2000/svg">
<rect x="20.6341" y="54.6786" width="18.4157" height="3.86502" fill="#323232"/>
<path fill-rule="evenodd" clip-rule="evenodd" d="M42.5169 66.8421C46.378 66.8421 49.508 63.712 49.508 59.8509C49.508 55.9898 46.378 52.8598 42.5169 52.8598C38.6558 52.8598 35.5258 55.9898 35.5258 59.8509C35.5258 63.712 38.6558 66.8421 42.5169 66.8421ZM42.5737 63.6591C44.6455 63.6591 46.3251 61.9796 46.3251 59.9078C46.3251 57.836 44.6455 56.1564 42.5737 56.1564C40.5019 56.1564 38.8224 57.836 38.8224 59.9078C38.8224 61.9796 40.5019 63.6591 42.5737 63.6591Z" fill="#323232"/>
<path fill-rule="evenodd" clip-rule="evenodd" d="M17.0533 66.8421C20.9144 66.8421 24.0444 63.712 24.0444 59.8509C24.0444 55.9898 20.9144 52.8598 17.0533 52.8598C13.1922 52.8598 10.0621 55.9898 10.0621 59.8509C10.0621 63.712 13.1922 66.8421 17.0533 66.8421ZM17.1101 63.6591C19.1819 63.6591 20.8614 61.9796 20.8614 59.9078C20.8614 57.836 19.1819 56.1564 17.1101 56.1564C15.0383 56.1564 13.3588 57.836 13.3588 59.9078C13.3588 61.9796 15.0383 63.6591 17.1101 63.6591Z" fill="#323232"/>
<rect x="9.46674" y="33.6022" width="5.00179" height="21.4786" transform="rotate(-11.6164 9.46674 33.6022)" fill="#323232"/>
<path d="M10.1758 29.215C12.4494 29.7606 13.4346 31.8674 13.643 32.8526L9.49375 33.5915C9.49375 33.0004 8.96326 32.8526 8.69801 32.8526H1.25218C0.342776 32.8526 0.0396307 32.0569 0.00173394 31.659V30.5791C-0.0437369 29.7151 0.816419 29.3097 1.25218 29.215H10.1758Z" fill="#323232"/>
<rect x="13.2451" y="32.1706" width="34.5578" height="3.86502" fill="#323232"/>
<rect x="46.6948" y="31.6022" width="4.38748" height="18.1203" rx="2.19374" transform="rotate(17.9981 46.6948 31.6022)" fill="#323232"/>
<rect x="45.1986" y="45.7573" width="3.82974" height="30.9247" rx="1.91487" transform="rotate(90.0866 45.1986 45.7573)" fill="#323232"/>
<rect x="18.9289" y="36.0108" width="3.51765" height="10.7389" transform="rotate(-3.30112 18.9289 36.0108)" fill="#323232"/>
<rect x="25.2948" y="35.5968" width="3.51765" height="10.7389" transform="rotate(-2.11123 25.2948 35.5968)" fill="#323232"/>
<rect x="31.8305" y="35.5076" width="3.51765" height="10.7389" transform="rotate(1.38522 31.8305 35.5076)" fill="#323232"/>
<rect x="38.2235" y="35.2399" width="3.51765" height="10.7389" transform="rotate(2.87082 38.2235 35.2399)" fill="#323232"/>
<path d="M24.0444 27.9645C24.7264 28.2374 26.7158 31.1096 27.6252 32.5116L32.1723 32.7958C32.1723 31.4317 34.4837 29.0066 35.6394 27.9645L34.5027 26.1457C33.6387 26.1457 31.9449 27.8887 31.206 28.7603V25.35C32.2519 22.6217 36.151 19.5145 37.9698 18.302L36.8899 16.0853C35.4803 16.3581 32.5133 19.3061 31.206 20.746V12.9592H28.3641V20.746C28.0458 19.7002 24.6317 17.3168 22.9645 16.2558L21.7708 18.5862C24.5446 19.632 27.3221 23.6448 28.3641 25.5205V28.7603C28.2732 28.351 26.3558 26.8467 25.4085 26.1457L24.0444 27.9645Z" fill="#003904"/>
<circle cx="23.0782" cy="25.7478" r="2.44406" fill="#09AF00"/>
<circle cx="36.6057" cy="25.7478" r="2.44406" fill="#09AF00"/>
<path fill-rule="evenodd" clip-rule="evenodd" d="M16.4849 21.2576C20.1576 21.2576 23.135 18.2803 23.135 14.6075C23.135 10.9348 20.1576 7.9574 16.4849 7.9574C12.8121 7.9574 9.83479 10.9348 9.83479 14.6075C9.83479 18.2803 12.8121 21.2576 16.4849 21.2576ZM14.1 13.4034C14.7545 14.5083 16.9412 16.6972 20.452 16.6133C19.3857 15.4551 16.6224 13.1916 14.1 13.4034Z" fill="#09AF00"/>
<path fill-rule="evenodd" clip-rule="evenodd" d="M29.7851 13.3002C33.4579 13.3002 36.4352 10.3229 36.4352 6.6501C36.4352 2.97735 33.4579 0 29.7851 0C26.1123 0 23.135 2.97735 23.135 6.6501C23.135 10.3229 26.1123 13.3002 29.7851 13.3002ZM29.7957 3.98655C29.1616 5.00841 28.291 7.77181 29.8808 10.6504C30.3807 9.26361 31.0636 5.98926 29.7957 3.98655Z" fill="#09AF00"/>
<path fill-rule="evenodd" clip-rule="evenodd" d="M43.0853 21.2576C46.758 21.2576 49.7354 18.2803 49.7354 14.6075C49.7354 10.9348 46.758 7.9574 43.0853 7.9574C39.4125 7.9574 36.4352 10.9348 36.4352 14.6075C36.4352 18.2803 39.4125 21.2576 43.0853 21.2576ZM45.5029 14.1082C44.331 13.838 41.4345 13.906 39.2232 16.34C40.6972 16.3655 44.0167 15.9548 45.5029 14.1082Z" fill="#09AF00"/>
<path d="M270.251 32.0789C270.75 33.1519 271 34.3622 271 35.7097C270.201 35.8345 269.316 35.9094 268.342 35.9343C267.394 35.9593 266.496 35.8844 265.647 35.7097C265.722 35.4103 265.685 35.1108 265.535 34.8114C265.41 34.5119 265.211 34.2499 264.936 34.0253C264.687 33.8007 264.387 33.6385 264.038 33.5387C263.713 33.4139 263.389 33.364 263.065 33.389C262.491 33.4888 262.054 33.7134 261.754 34.0628C261.48 34.3872 261.343 34.749 261.343 35.1483C261.343 35.5475 261.492 35.9468 261.792 36.3461C262.091 36.7454 262.528 37.0448 263.102 37.2444C264.499 37.4441 265.809 37.7186 267.032 38.0679C268.255 38.3923 269.153 38.9289 269.727 39.6775C270.276 40.5759 270.613 41.4992 270.738 42.4474C270.863 43.3707 270.688 44.5186 270.214 45.8911C269.64 47.1139 268.742 47.9873 267.519 48.5113C266.296 49.0354 264.961 49.2849 263.514 49.26C262.241 49.3099 261.093 49.1976 260.07 48.9231C259.047 48.6486 258.161 48.2368 257.412 47.6878C256.689 47.1389 256.115 46.4651 255.691 45.6665C255.291 44.868 255.092 43.9696 255.092 42.9715V42.8592V42.7843C255.915 42.6845 256.851 42.6595 257.899 42.7095C258.947 42.7344 259.858 42.7469 260.631 42.7469C260.656 43.3208 260.918 43.795 261.418 44.1693C261.942 44.5186 262.491 44.7308 263.065 44.8056C263.638 44.8555 264.163 44.7432 264.637 44.4687C265.111 44.1942 265.335 43.6952 265.31 42.9715C265.385 42.3726 265.248 41.9234 264.899 41.6239C264.549 41.3245 264.088 41.0999 263.514 40.9502C262.94 40.7755 262.291 40.6258 261.567 40.501C260.844 40.3762 260.132 40.1641 259.434 39.8647C258.036 39.3905 257.013 38.6544 256.364 37.6562C255.74 36.6331 255.441 35.585 255.466 34.5119C255.516 33.4139 255.865 32.4033 256.514 31.48C257.188 30.5567 258.136 29.9328 259.359 29.6084C259.833 29.4836 260.407 29.3838 261.081 29.309C261.779 29.2341 262.516 29.1967 263.289 29.1967C264.063 29.1967 264.836 29.2466 265.61 29.3464C266.383 29.4212 267.095 29.5335 267.743 29.6833C268.916 30.1824 269.752 30.9809 270.251 32.0789Z" fill="black"/>
<path d="M248.09 28.2609C248.09 25.99 248.202 23.7192 248.427 21.4483L253.517 21.5606C253.517 22.5837 253.505 23.819 253.48 25.2663C253.455 26.7137 253.43 28.2608 253.405 29.9078C253.38 31.5548 253.355 33.2642 253.33 35.036C253.33 36.8077 253.33 38.5171 253.33 40.1641C253.33 41.8111 253.343 43.3583 253.368 44.8056C253.393 46.228 253.43 47.4383 253.48 48.4365C253.355 48.5862 253.043 48.6611 252.544 48.6611C252.045 48.686 251.496 48.686 250.897 48.6611C250.323 48.6611 249.774 48.6486 249.25 48.6236C248.726 48.5987 248.377 48.6111 248.202 48.6611C248.377 46.4152 248.439 44.1568 248.389 41.8859C248.364 39.6151 248.314 37.3442 248.24 35.0734C248.165 32.8025 248.115 30.5317 248.09 28.2609Z" fill="black"/>
<path d="M243.464 29.9078C244.088 29.9328 244.799 29.9702 245.597 30.0201C245.622 30.1699 245.635 30.3196 245.635 30.4693C245.66 30.619 245.672 30.7688 245.672 30.9185V31.2928C245.597 33.9879 245.61 36.6455 245.71 39.2657C245.81 41.861 245.772 44.4937 245.597 47.1638C245.597 47.4882 245.585 47.8126 245.56 48.137C245.56 48.4614 245.41 48.6486 245.111 48.6985H244.662C244.262 48.6985 243.851 48.686 243.426 48.6611C243.027 48.6112 242.628 48.5862 242.229 48.5862C241.954 48.5862 241.68 48.6112 241.405 48.6611C241.156 48.686 240.894 48.6985 240.619 48.6985C240.444 48.6486 240.32 48.5488 240.245 48.399C240.195 48.2493 240.17 48.0746 240.17 47.875C240.17 47.6005 240.195 47.3759 240.245 47.2012C240.295 47.0266 240.32 46.8144 240.32 46.5649C239.721 47.1638 238.96 47.6754 238.036 48.0996C237.138 48.5238 236.252 48.7359 235.379 48.7359C234.405 48.7359 233.569 48.399 232.871 47.7253C232.197 47.0515 231.635 46.2155 231.186 45.2174C230.737 44.2192 230.4 43.1337 230.176 41.9608C229.976 40.788 229.876 39.7024 229.876 38.7043C229.876 37.4565 230.038 36.3086 230.363 35.2606C230.687 34.2125 231.124 33.3141 231.673 32.5655C232.247 31.7919 232.921 31.193 233.694 30.7688C234.468 30.3196 235.291 30.0825 236.165 30.0576C236.614 30.0576 237.026 30.0701 237.4 30.095C237.799 30.095 238.161 30.1574 238.485 30.2822C238.81 30.382 239.097 30.5567 239.346 30.8062C239.596 31.0308 239.808 31.3552 239.983 31.7794C239.958 31.3802 239.97 31.0433 240.02 30.7688C240.095 30.4693 240.132 30.1699 240.132 29.8704C240.132 29.8455 240.207 29.833 240.357 29.833C240.532 29.808 240.719 29.808 240.918 29.833C241.118 29.833 241.318 29.833 241.517 29.833C241.717 29.833 241.854 29.833 241.929 29.833C242.353 29.8579 242.865 29.8829 243.464 29.9078ZM235.753 35.822C235.179 36.2962 234.83 36.8452 234.705 37.469C234.605 37.7934 234.543 38.1303 234.518 38.4797C234.493 38.8041 234.48 39.1285 234.48 39.4529C234.48 40.5758 234.767 41.5366 235.341 42.3351C235.94 43.1087 236.764 43.4955 237.812 43.4955C238.436 43.4955 238.897 43.3957 239.197 43.1961C239.521 42.9715 239.746 42.672 239.87 42.2977C240.02 41.8984 240.095 41.4243 240.095 40.8753C240.12 40.3013 240.132 39.665 240.132 38.9663C240.132 38.0929 240.12 37.4066 240.095 36.9076C240.095 36.3835 240.033 35.9842 239.908 35.7097C239.808 35.4352 239.621 35.2606 239.346 35.1857C239.097 35.1108 238.71 35.0734 238.186 35.0734C237.163 35.0734 236.352 35.3229 235.753 35.822Z" fill="black"/>
<path d="M225.271 29.833C225.845 29.8579 226.531 29.8579 227.33 29.833H227.966V29.9453C227.941 32.9648 227.879 36.0466 227.779 39.1909C227.704 42.3351 227.754 45.417 227.929 48.4365C227.804 48.5862 227.492 48.6611 226.993 48.6611C226.494 48.686 225.945 48.686 225.346 48.6611C224.772 48.6611 224.223 48.6486 223.699 48.6236C223.175 48.5987 222.825 48.6112 222.651 48.6611C222.775 47.0889 222.825 45.4919 222.8 43.8698C222.8 42.2478 222.775 40.6382 222.726 39.0412C222.676 37.4441 222.651 35.872 222.651 34.3248C222.651 32.7527 222.726 31.2304 222.875 29.7581V29.7207C222.975 29.6957 223.137 29.6957 223.362 29.7207C223.611 29.7457 223.799 29.7581 223.923 29.7581C224.248 29.7831 224.697 29.808 225.271 29.833ZM222.763 24.5926C222.713 23.794 222.701 22.8208 222.726 21.6729L227.816 21.7852C227.816 21.9349 227.816 22.2094 227.816 22.6087C227.841 22.983 227.854 23.4072 227.854 23.8814C227.879 24.3306 227.891 24.8047 227.891 25.3038C227.916 25.7779 227.929 26.2021 227.929 26.5764C227.829 26.7262 227.592 26.826 227.217 26.8759C226.868 26.9258 226.444 26.9508 225.945 26.9508C225.471 26.9258 224.959 26.9009 224.41 26.8759C223.861 26.826 223.349 26.8135 222.875 26.8385C222.875 26.1148 222.838 25.3662 222.763 24.5926Z" fill="black"/>
<path d="M213.715 23.0953C214.139 23.1202 214.564 23.1077 214.988 23.0578V28.0737C214.988 28.3981 214.988 28.735 214.988 29.0843C215.013 29.4337 215.025 29.7955 215.025 30.1698C215.799 30.1449 216.61 30.1074 217.458 30.0575C218.332 30.0076 219.405 29.9452 220.677 29.8704C220.852 30.07 220.952 30.3695 220.977 30.7687C221.002 31.1431 221.002 31.5548 220.977 32.004C220.952 32.4532 220.914 32.9148 220.864 33.3889C220.84 33.8381 220.852 34.2249 220.902 34.5493H215.1C215.1 35.8969 215.1 37.2194 215.1 38.5171C215.1 39.7897 215.113 40.9876 215.137 42.1105C215.387 42.4599 215.749 42.7344 216.223 42.934C216.697 43.1336 217.209 43.2958 217.758 43.4206C218.307 43.5204 218.856 43.5828 219.405 43.6078C219.979 43.6327 220.478 43.6327 220.902 43.6078C220.952 43.9571 221.002 44.3439 221.052 44.7681C221.102 45.1924 221.139 45.6291 221.164 46.0782C221.189 46.5274 221.176 46.9766 221.127 47.4258C221.102 47.875 221.027 48.2867 220.902 48.661C219.904 48.7109 218.868 48.7109 217.795 48.661C216.722 48.5862 215.711 48.4364 214.763 48.2118C213.815 47.9873 212.966 47.6504 212.218 47.2012C211.494 46.752 210.97 46.1406 210.646 45.367C210.321 43.4456 210.134 41.6364 210.084 39.9395C210.034 38.2176 210.022 36.4459 210.047 34.6242C209.647 34.6491 209.223 34.6616 208.774 34.6616C208.35 34.6616 207.876 34.6616 207.352 34.6616L207.464 30.095C207.963 30.1199 208.425 30.1324 208.849 30.1324C209.298 30.1324 209.722 30.1324 210.122 30.1324C210.122 29.5834 210.109 28.997 210.084 28.3731C210.059 27.7243 210.047 27.0755 210.047 26.4267C210.047 25.7779 210.047 25.154 210.047 24.5551C210.072 23.9562 210.109 23.4197 210.159 22.9455C210.483 22.8956 210.833 22.8832 211.207 22.9081C211.606 22.9331 212.018 22.9705 212.442 23.0204C212.867 23.0454 213.291 23.0703 213.715 23.0953Z" fill="black"/>
<path d="M196.377 31.0308C196.377 31.3053 196.389 31.6172 196.414 31.9666C196.539 31.8917 196.689 31.8044 196.864 31.7045C197.063 31.6047 197.225 31.5049 197.35 31.4051C197.874 31.0308 198.461 30.7313 199.109 30.5067C199.758 30.2821 200.42 30.1574 201.093 30.1324C201.792 30.1075 202.466 30.1823 203.115 30.357C203.763 30.5317 204.35 30.8436 204.874 31.2928C205.123 31.5174 205.311 31.9915 205.435 32.7152C205.585 33.4139 205.672 34.2624 205.697 35.2605C205.747 36.2587 205.76 37.3567 205.735 38.5545C205.735 39.7274 205.722 40.9252 205.697 42.148C205.672 43.3458 205.647 44.5061 205.623 45.6291C205.598 46.752 205.61 47.7377 205.66 48.5862C204.787 48.711 204 48.7609 203.302 48.7359C202.628 48.7359 201.854 48.7359 200.981 48.7359C200.931 48.162 200.906 47.5131 200.906 46.7895C200.906 46.0658 200.906 45.3172 200.906 44.5436C200.931 43.77 200.931 42.9964 200.906 42.2228C200.906 41.4492 200.881 40.7256 200.831 40.0518C200.806 39.7523 200.781 39.4279 200.756 39.0786C200.731 38.7043 200.682 38.3424 200.607 37.9931C200.557 37.6437 200.469 37.3318 200.345 37.0573C200.245 36.7828 200.095 36.5707 199.896 36.4209C199.871 36.396 199.846 36.3835 199.821 36.3835C199.796 36.3835 199.771 36.371 199.746 36.3461C199.546 36.2462 199.247 36.1714 198.847 36.1215C198.473 36.0466 198.099 36.0716 197.724 36.1963C197.35 36.2962 197.013 36.5207 196.714 36.8701C196.414 37.1945 196.24 37.6936 196.19 38.3674C196.14 39.2408 196.127 40.1017 196.152 40.9501C196.177 41.7736 196.202 42.6096 196.227 43.4581C196.277 44.2816 196.302 45.1051 196.302 45.9285C196.302 46.752 196.252 47.5755 196.152 48.399V48.5488C195.728 48.6735 195.354 48.7484 195.029 48.7733C194.73 48.7983 194.418 48.7983 194.094 48.7733C193.769 48.7733 193.407 48.7609 193.008 48.7359C192.609 48.711 192.11 48.7234 191.511 48.7733C191.511 45.704 191.473 42.6346 191.399 39.5652C191.349 36.4958 191.374 33.3141 191.473 30.0201C191.773 30.0451 192.022 30.07 192.222 30.095C192.422 30.095 192.609 30.095 192.784 30.095C192.958 30.095 193.145 30.095 193.345 30.095C193.545 30.07 193.794 30.0451 194.094 30.0201C194.193 30.0201 194.368 30.0077 194.618 29.9827C194.867 29.9328 195.117 29.8954 195.366 29.8704C195.616 29.8454 195.84 29.8454 196.04 29.8704C196.24 29.8704 196.34 29.9078 196.34 29.9827C196.389 30.4069 196.402 30.7563 196.377 31.0308Z" fill="black"/>
<path d="M180.493 39.378C179.944 39.3531 179.545 39.3157 179.296 39.2657V39.9395C179.321 40.6881 179.345 41.2995 179.37 41.7737C179.42 42.2478 179.583 42.7094 179.857 43.1586C180.156 43.7326 180.581 44.1568 181.13 44.4313C181.679 44.7058 182.215 44.7931 182.739 44.6933C183.263 44.5935 183.7 44.2941 184.049 43.795C184.424 43.2709 184.586 42.4973 184.536 41.4742C184.786 41.4992 185.122 41.5116 185.547 41.5116C185.971 41.4867 186.408 41.4617 186.857 41.4368C187.331 41.4118 187.78 41.4118 188.204 41.4368C188.629 41.4368 188.978 41.4742 189.252 41.5491C189.202 42.1979 189.153 42.8342 189.103 43.4581C189.053 44.0819 188.99 44.6684 188.915 45.2174C188.841 45.7414 188.741 46.2031 188.616 46.6023C188.516 46.9766 188.379 47.2387 188.204 47.3884C187.78 47.9873 187.231 48.4115 186.557 48.6611C185.884 48.9106 185.147 49.0603 184.349 49.1102C183.55 49.1602 182.727 49.1602 181.878 49.1102C181.055 49.0603 180.294 49.0354 179.595 49.0354C178.896 48.9356 178.247 48.711 177.649 48.3616C176.975 47.8875 176.413 47.2761 175.964 46.5275C175.515 45.7539 175.153 44.9179 174.879 44.0196C174.604 43.0962 174.417 42.123 174.317 41.0999C174.217 40.0768 174.192 39.0536 174.242 38.0305C174.317 37.1072 174.392 36.2213 174.467 35.3729C174.567 34.4995 174.766 33.651 175.066 32.8275C175.39 32.1038 175.889 31.4925 176.563 30.9934C177.237 30.4693 177.998 30.0825 178.846 29.833C179.695 29.5585 180.593 29.4088 181.541 29.3838C182.49 29.3589 183.413 29.4587 184.311 29.6833C185.459 29.8829 186.383 30.2822 187.081 30.8811C187.78 31.48 188.304 32.2037 188.653 33.0521C189.028 33.9006 189.252 34.8363 189.327 35.8595C189.402 36.8826 189.402 37.9182 189.327 38.9663C189.153 39.0162 188.816 39.0661 188.317 39.116C187.842 39.1659 187.268 39.2158 186.595 39.2657C185.946 39.3157 185.247 39.3531 184.499 39.378C183.75 39.403 183.026 39.4155 182.328 39.4155C181.654 39.4155 181.042 39.403 180.493 39.378ZM184.873 34.4745C184.623 34.0253 184.274 33.6884 183.825 33.4639C183.625 33.3391 183.426 33.2517 183.226 33.2018C183.026 33.127 182.789 33.0895 182.515 33.0895C181.916 33.0895 181.429 33.1519 181.055 33.2767C180.681 33.4015 180.381 33.5761 180.156 33.8007C179.932 34.0253 179.757 34.2873 179.632 34.5868C179.533 34.8863 179.458 35.1982 179.408 35.5226C179.358 35.7971 179.333 35.9967 179.333 36.1215C179.358 36.2213 179.483 36.2962 179.707 36.3461C179.932 36.371 180.281 36.3835 180.755 36.3835C181.254 36.3586 181.978 36.3461 182.926 36.3461C183.575 36.3461 184.062 36.3586 184.386 36.3835C184.711 36.4085 184.935 36.4209 185.06 36.4209C185.21 36.396 185.285 36.3586 185.285 36.3086C185.285 36.2338 185.285 36.0965 185.285 35.8969C185.285 35.3978 185.147 34.9237 184.873 34.4745Z" fill="black"/>
<path d="M172.176 32.0789C172.675 33.1519 172.925 34.3622 172.925 35.7097C172.126 35.8345 171.24 35.9094 170.267 35.9343C169.319 35.9593 168.421 35.8844 167.572 35.7097C167.647 35.4103 167.61 35.1108 167.46 34.8114C167.335 34.5119 167.135 34.2499 166.861 34.0253C166.611 33.8007 166.312 33.6385 165.963 33.5387C165.638 33.4139 165.314 33.364 164.989 33.389C164.415 33.4888 163.979 33.7134 163.679 34.0628C163.405 34.3872 163.268 34.749 163.268 35.1483C163.268 35.5475 163.417 35.9468 163.717 36.3461C164.016 36.7454 164.453 37.0448 165.027 37.2444C166.424 37.4441 167.734 37.7186 168.957 38.0679C170.18 38.3923 171.078 38.9289 171.652 39.6775C172.201 40.5759 172.538 41.4992 172.663 42.4474C172.788 43.3707 172.613 44.5186 172.139 45.8911C171.565 47.1139 170.667 47.9873 169.444 48.5113C168.221 49.0354 166.886 49.2849 165.439 49.26C164.166 49.3099 163.018 49.1976 161.995 48.9231C160.972 48.6486 160.086 48.2368 159.337 47.6878C158.614 47.1389 158.04 46.4651 157.615 45.6665C157.216 44.868 157.016 43.9696 157.016 42.9715V42.8592V42.7843C157.84 42.6845 158.776 42.6595 159.824 42.7095C160.872 42.7344 161.783 42.7469 162.556 42.7469C162.581 43.3208 162.843 43.795 163.342 44.1693C163.866 44.5186 164.415 44.7308 164.989 44.8056C165.563 44.8555 166.087 44.7432 166.562 44.4687C167.036 44.1942 167.26 43.6952 167.235 42.9715C167.31 42.3726 167.173 41.9234 166.824 41.6239C166.474 41.3245 166.013 41.0999 165.439 40.9502C164.865 40.7755 164.216 40.6258 163.492 40.501C162.768 40.3762 162.057 40.1641 161.359 39.8647C159.961 39.3905 158.938 38.6544 158.289 37.6562C157.665 36.6331 157.366 35.585 157.391 34.5119C157.441 33.4139 157.79 32.4033 158.439 31.48C159.113 30.5567 160.061 29.9328 161.284 29.6084C161.758 29.4836 162.332 29.3838 163.006 29.309C163.704 29.2341 164.44 29.1967 165.214 29.1967C165.988 29.1967 166.761 29.2466 167.535 29.3464C168.308 29.4212 169.02 29.5335 169.668 29.6833C170.841 30.1824 171.677 30.9809 172.176 32.0789Z" fill="black"/>
<path d="M155.325 32.0789C155.824 33.1519 156.073 34.3622 156.073 35.7097C155.275 35.8345 154.389 35.9094 153.416 35.9343C152.467 35.9593 151.569 35.8844 150.721 35.7097C150.796 35.4103 150.758 35.1108 150.608 34.8114C150.484 34.5119 150.284 34.2499 150.009 34.0253C149.76 33.8007 149.46 33.6385 149.111 33.5387C148.787 33.4139 148.462 33.364 148.138 33.389C147.564 33.4888 147.127 33.7134 146.828 34.0628C146.553 34.3872 146.416 34.749 146.416 35.1483C146.416 35.5475 146.566 35.9468 146.865 36.3461C147.165 36.7454 147.601 37.0448 148.175 37.2444C149.573 37.4441 150.883 37.7186 152.106 38.0679C153.328 38.3923 154.227 38.9289 154.801 39.6775C155.35 40.5759 155.687 41.4992 155.811 42.4474C155.936 43.3707 155.761 44.5186 155.287 45.8911C154.713 47.1139 153.815 47.9873 152.592 48.5113C151.369 49.0354 150.034 49.2849 148.587 49.26C147.314 49.3099 146.166 49.1976 145.143 48.9231C144.12 48.6486 143.234 48.2368 142.486 47.6878C141.762 47.1389 141.188 46.4651 140.764 45.6665C140.365 44.868 140.165 43.9696 140.165 42.9715V42.8592V42.7843C140.988 42.6845 141.924 42.6595 142.972 42.7095C144.02 42.7344 144.931 42.7469 145.705 42.7469C145.73 43.3208 145.992 43.795 146.491 44.1693C147.015 44.5186 147.564 44.7308 148.138 44.8056C148.712 44.8555 149.236 44.7432 149.71 44.4687C150.184 44.1942 150.409 43.6952 150.384 42.9715C150.459 42.3726 150.321 41.9234 149.972 41.6239C149.623 41.3245 149.161 41.0999 148.587 40.9502C148.013 40.7755 147.364 40.6258 146.641 40.501C145.917 40.3762 145.206 40.1641 144.507 39.8647C143.11 39.3905 142.086 38.6544 141.438 37.6562C140.814 36.6331 140.514 35.585 140.539 34.5119C140.589 33.4139 140.939 32.4033 141.587 31.48C142.261 30.5567 143.209 29.9328 144.432 29.6084C144.906 29.4836 145.48 29.3838 146.154 29.309C146.853 29.2341 147.589 29.1967 148.362 29.1967C149.136 29.1967 149.91 29.2466 150.683 29.3464C151.457 29.4212 152.168 29.5335 152.817 29.6833C153.99 30.1824 154.826 30.9809 155.325 32.0789Z" fill="black"/>
<path d="M134.122 43.5329C135.719 43.6078 137.366 43.6203 139.063 43.5704V43.6452C139.113 44.4438 139.125 45.2797 139.1 46.1531C139.075 47.0016 138.963 47.8001 138.763 48.5488C136.218 48.5238 133.623 48.5612 130.978 48.661C128.357 48.7359 125.837 48.6735 123.416 48.4739C123.416 46.3029 123.391 44.1568 123.342 42.0357C123.292 39.8896 123.254 37.756 123.229 35.6349C123.204 33.5137 123.204 31.3926 123.229 29.2715C123.254 27.1504 123.329 25.0168 123.454 22.8707C124.427 22.8208 125.475 22.7834 126.598 22.7584C127.746 22.7085 128.894 22.6711 130.042 22.6461C131.19 22.6212 132.3 22.5962 133.373 22.5712C134.446 22.5463 135.394 22.5338 136.218 22.5338C137.041 22.5338 137.703 22.5463 138.202 22.5712C138.701 22.5962 138.95 22.6212 138.95 22.6461C139.075 23.5195 139.1 24.4054 139.025 25.3037C138.975 26.2021 138.95 27.088 138.95 27.9614V27.9988C138.152 28.1735 137.341 28.2858 136.517 28.3357C135.719 28.3607 134.908 28.3731 134.084 28.3731C133.261 28.3482 132.437 28.3357 131.614 28.3357C130.79 28.3357 129.967 28.3731 129.143 28.448H129.031L128.994 28.4854C129.019 29.2091 128.981 29.9577 128.881 30.7313C128.807 31.48 128.856 32.1912 129.031 32.8649L129.069 32.9024C129.817 32.9523 130.578 32.9772 131.352 32.9772C132.125 32.9772 132.899 32.9897 133.673 33.0147V33.0521C133.797 33.9005 133.835 34.749 133.785 35.5974C133.735 36.4459 133.723 37.3318 133.747 38.2551C133.373 38.3549 132.949 38.4173 132.475 38.4422C132.001 38.4422 131.539 38.4422 131.09 38.4422C130.666 38.4422 130.279 38.4547 129.929 38.4797C129.58 38.5046 129.343 38.567 129.218 38.6668C129.093 39.3905 129.044 40.2015 129.069 41.0999C129.118 41.9982 129.168 42.7469 129.218 43.3458L129.256 43.3832C130.903 43.3832 132.525 43.4331 134.122 43.5329Z" fill="black"/>
<path d="M98.8075 32.7152C98.9572 32.241 99.0695 31.8667 99.1443 31.5922C99.319 31.2179 99.5935 30.8935 99.9678 30.619C100.367 30.3445 100.816 30.1199 101.315 29.9452C101.839 29.7456 102.388 29.6084 102.962 29.5335C103.561 29.4586 104.16 29.4212 104.759 29.4212C105.258 29.4711 105.732 29.4836 106.181 29.4586C106.656 29.4087 107.155 29.4087 107.679 29.4586C108.477 29.5085 109.238 29.6707 109.962 29.9452C110.686 30.1948 111.31 30.5691 111.834 31.0682C112.183 31.2928 112.458 31.6546 112.657 32.1537C112.857 32.6528 113.007 33.2392 113.106 33.913C113.206 34.5618 113.269 35.2855 113.293 36.084C113.318 36.8576 113.343 37.6561 113.368 38.4796C113.343 39.2033 113.306 40.0268 113.256 40.9501C113.231 41.8734 113.169 42.7593 113.069 43.6078C112.994 44.4562 112.882 45.2173 112.732 45.8911C112.607 46.5649 112.42 47.0265 112.171 47.2761C111.746 47.875 111.185 48.2992 110.486 48.5487C109.812 48.7983 109.076 48.948 108.278 48.9979C107.479 49.0728 106.656 49.0728 105.807 48.9979C104.959 48.948 104.185 48.923 103.486 48.923C102.214 48.6985 101.141 48.1495 100.267 47.2761C99.5935 46.6772 99.1319 45.9285 98.8823 45.0302C98.6328 44.1318 98.4831 43.196 98.4331 42.2228C98.3832 41.2246 98.3708 40.2264 98.3957 39.2283C98.4456 38.2301 98.4331 37.3193 98.3583 36.4958C98.3583 36.0466 98.3708 35.6099 98.3957 35.1857C98.4207 34.7365 98.4706 34.2748 98.5454 33.8007C98.5704 33.5262 98.6577 33.1644 98.8075 32.7152ZM105.096 35.1857C104.572 35.3354 104.148 35.6099 103.823 36.0092C103.674 36.109 103.561 36.3585 103.486 36.7578C103.387 37.5563 103.337 38.3549 103.337 39.1534C103.337 39.927 103.312 40.7505 103.262 41.6239C103.237 42.1978 103.387 42.647 103.711 42.9714C104.035 43.2709 104.422 43.483 104.871 43.6078C105.346 43.7076 105.832 43.7325 106.331 43.6826C106.83 43.6078 107.242 43.483 107.566 43.3083C107.991 43.1087 108.278 42.6969 108.427 42.0731C108.527 41.2745 108.602 40.476 108.652 39.6775C108.727 38.854 108.689 38.0804 108.54 37.3567C108.415 36.4833 108.053 35.847 107.454 35.4477C106.855 35.0484 106.069 34.9611 105.096 35.1857Z" fill="black"/>
<path d="M95.6115 41.3619C96.0357 41.3619 96.385 41.3993 96.6595 41.4742C96.6096 42.123 96.5597 42.7593 96.5098 43.3832C96.4599 44.0071 96.3975 44.5935 96.3227 45.1425C96.2478 45.6665 96.148 46.1282 96.0232 46.5275C95.9234 46.9018 95.7861 47.1763 95.6115 47.3509C95.1872 47.9499 94.6258 48.3741 93.927 48.6236C93.2533 48.8732 92.5171 49.0229 91.7186 49.0728C90.92 49.1477 90.0965 49.1477 89.2481 49.0728C88.3996 49.0229 87.6261 48.9979 86.9273 48.9979C85.6547 48.7734 84.5816 48.2244 83.7082 47.3509C83.0344 46.752 82.5728 46.0034 82.3232 45.1051C82.0737 44.2067 81.924 43.2709 81.8741 42.2977C81.8242 41.2995 81.8117 40.3013 81.8366 39.3032C81.8865 38.305 81.8616 37.3942 81.7618 36.5707C81.7618 35.6723 81.8366 34.7739 81.9864 33.8756C82.0113 33.6011 82.0987 33.2268 82.2484 32.7526C82.3981 32.2785 82.5104 31.9167 82.5853 31.6671C82.7599 31.2928 83.0344 30.9684 83.4088 30.6939C83.808 30.4194 84.2572 30.1948 84.7563 30.0201C85.2803 29.8205 85.8293 29.6833 86.4033 29.6084C87.0022 29.5335 87.6011 29.4961 88.2 29.4961C88.6991 29.546 89.1732 29.5585 89.6224 29.5335C90.0965 29.4836 90.5956 29.4836 91.1197 29.5335C91.9182 29.5834 92.6793 29.7332 93.403 29.9827C94.1267 30.2322 94.7505 30.6066 95.2746 31.1057C95.6239 31.3552 95.886 31.6921 96.0606 32.1163C96.2603 32.5405 96.41 33.0396 96.5098 33.6136C96.6096 34.1875 96.6595 34.8363 96.6595 35.56C96.6845 36.2587 96.7094 37.0198 96.7344 37.8433C96.41 37.9182 96.0357 37.9556 95.6115 37.9556C95.2122 37.9556 94.788 37.9432 94.3388 37.9182C93.9146 37.8932 93.4903 37.8558 93.0661 37.8059C92.6668 37.756 92.305 37.7061 91.9806 37.6562C91.8558 36.7828 91.494 36.109 90.8951 35.6349C90.2962 35.1358 89.5101 35.011 88.5369 35.2606C88.0128 35.4103 87.5886 35.6848 87.2642 36.084C87.1145 36.1839 87.0022 36.4334 86.9273 36.8327C86.8275 37.6063 86.7776 38.3923 86.7776 39.1909C86.7776 39.9894 86.7526 40.8254 86.7027 41.6988C86.6528 42.2727 86.7901 42.7219 87.1145 43.0463C87.4638 43.3707 87.8756 43.5953 88.3497 43.7201C88.8239 43.8199 89.3105 43.8449 89.8096 43.795C90.3086 43.7201 90.7079 43.5828 91.0074 43.3832C91.2569 43.2085 91.4441 42.9215 91.5688 42.5223C91.7186 42.0981 91.8309 41.7237 91.9057 41.3993C92.1553 41.4243 92.4922 41.4368 92.9164 41.4368C93.3406 41.4118 93.7898 41.3869 94.2639 41.3619C94.738 41.3369 95.1872 41.3369 95.6115 41.3619Z" fill="black"/>
<path d="M75.4888 43.5329C77.0858 43.6078 78.7328 43.6203 80.4297 43.5704V43.6452C80.4796 44.4438 80.4921 45.2797 80.4672 46.1531C80.4422 47.0016 80.3299 47.8001 80.1303 48.5488C77.5849 48.5238 74.9897 48.5612 72.3445 48.661C69.7243 48.7359 67.2039 48.6735 64.7833 48.4739C64.7833 46.3029 64.7584 44.1568 64.7085 42.0357C64.6586 39.8896 64.6211 37.756 64.5962 35.6349C64.5712 33.5137 64.5712 31.3926 64.5962 29.2715C64.6211 27.1504 64.696 25.0168 64.8208 22.8707C65.794 22.8208 66.8421 22.7834 67.965 22.7584C69.1129 22.7085 70.2608 22.6711 71.4087 22.6461C72.5566 22.6212 73.6671 22.5962 74.7401 22.5712C75.8132 22.5463 76.7614 22.5338 77.5849 22.5338C78.4084 22.5338 79.0697 22.5463 79.5688 22.5712C80.0679 22.5962 80.3174 22.6212 80.3174 22.6461C80.4422 23.5195 80.4672 24.4054 80.3923 25.3037C80.3424 26.2021 80.3174 27.088 80.3174 27.9614V27.9988C79.5189 28.1735 78.7079 28.2858 77.8844 28.3357C77.0858 28.3607 76.2748 28.3731 75.4513 28.3731C74.6278 28.3482 73.8043 28.3357 72.9809 28.3357C72.1574 28.3357 71.3339 28.3731 70.5104 28.448H70.3981L70.3606 28.4854C70.3856 29.2091 70.3482 29.9577 70.2483 30.7313C70.1735 31.48 70.2234 32.1912 70.3981 32.8649L70.4355 32.9024C71.1841 32.9523 71.9452 32.9772 72.7188 32.9772C73.4924 32.9772 74.266 32.9897 75.0396 33.0147V33.0521C75.1644 33.9005 75.2018 34.749 75.1519 35.5974C75.102 36.4459 75.0895 37.3318 75.1145 38.2551C74.7401 38.3549 74.3159 38.4173 73.8418 38.4422C73.3676 38.4422 72.906 38.4422 72.4568 38.4422C72.0326 38.4422 71.6458 38.4547 71.2964 38.4797C70.9471 38.5046 70.71 38.567 70.5852 38.6668C70.4605 39.3905 70.4106 40.2015 70.4355 41.0999C70.4854 41.9982 70.5353 42.7469 70.5852 43.3458L70.6227 43.3832C72.2697 43.3832 73.8917 43.4331 75.4888 43.5329Z" fill="black"/>
</svg>
